<?xml version="1.0" encoding="utf-8"?>
<!-- Generator: Adobe Illustrator 21.1.0, SVG Export Plug-In . SVG Version: 6.00 Build 0)  -->
<svg version="1.1" id="Layer_1" xmlns="http://www.w3.org/2000/svg" xmlns:xlink="http://www.w3.org/1999/xlink" x="0px" y="0px"
	 viewBox="0 0 76 73" style="enable-background:new 0 0 76 73;" xml:space="preserve">
<g>
	<path d="M38,5.5c-17.1,0-31,13.9-31,31s13.9,31,31,31s31-13.9,31-31S55.1,5.5,38,5.5z M38,59.5c-12.7,0-23-10.3-23-23
		s10.3-23,23-23s23,10.3,23,23S50.7,59.5,38,59.5z"/>
	<polygon points="42,20.5 34,20.5 34,32.5 22,32.5 22,40.5 34,40.5 34,52.5 42,52.5 42,40.5 54,40.5 54,32.5 42,32.5 	"/>
</g>
</svg>
