<?xml version="1.0" encoding="utf-8"?>
<!-- Generator: Adobe Illustrator 21.1.0, SVG Export Plug-In . SVG Version: 6.00 Build 0)  -->
<svg version="1.1" id="Layer_1" xmlns="http://www.w3.org/2000/svg" xmlns:xlink="http://www.w3.org/1999/xlink" x="0px" y="0px"
	 viewBox="0 0 100 125" style="enable-background:new 0 0 100 125;" xml:space="preserve">
<title>60 all</title>
<path d="M69.3,69.3H30.7V30.7h14.8v-9H26.2c-2.5,0-4.5,2-4.5,4.5v47.6c0,2.5,2,4.5,4.5,4.5h47.6c2.5,0,4.5-2,4.5-4.5V54.5h-9V69.3z"
	/>
<path d="M42,48.5l-3.5,9.3c-0.4,1.6,0.5,3.3,2.1,3.7c0.5,0.1,1.1,0.1,1.6,0l9.3-3.5c0.5-0.1,1-0.4,1.3-0.8l24-24
	c1.2-1.2,1.9-2.4,0.7-3.5L71,23.1c-1.2-1.2-3.1-1.2-4.2,0l-24,24C42.4,47.5,42.1,48,42,48.5z M45.7,54.2L45.7,54.2L45.7,54.2
	L45.7,54.2z"/>
</svg>
